<mxfile host="Electron" modified="2023-04-07T06:47:55.986Z" agent="Mozilla/5.0 (X11; Linux x86_64) AppleWebKit/537.36 (KHTML, like Gecko) draw.io/21.1.2 Chrome/106.0.5249.199 Electron/21.4.3 Safari/537.36" etag="C6WU29iQty7TJpLWRF4F" version="21.1.2" type="device">
  <diagram name="Page-1" id="4b-PDstXcS8ArV3mw7iB">
    <mxGraphModel dx="2046" dy="1194" grid="1" gridSize="10" guides="1" tooltips="1" connect="1" arrows="1" fold="1" page="1" pageScale="1" pageWidth="900" pageHeight="1600" math="0" shadow="0">
      <root>
        <mxCell id="0" />
        <mxCell id="1" parent="0" />
        <mxCell id="3VvAE-X5apnyeA4Ob0VP-3" value="" style="endArrow=classic;html=1;rounded=0;" edge="1" parent="1">
          <mxGeometry width="50" height="50" relative="1" as="geometry">
            <mxPoint x="80" y="630" as="sourcePoint" />
            <mxPoint x="820" y="630" as="targetPoint" />
          </mxGeometry>
        </mxCell>
        <mxCell id="3VvAE-X5apnyeA4Ob0VP-51" value="Time" style="edgeLabel;html=1;align=center;verticalAlign=middle;resizable=0;points=[];" vertex="1" connectable="0" parent="3VvAE-X5apnyeA4Ob0VP-3">
          <mxGeometry x="-0.0723" y="-2" relative="1" as="geometry">
            <mxPoint as="offset" />
          </mxGeometry>
        </mxCell>
        <mxCell id="3VvAE-X5apnyeA4Ob0VP-18" value="EN&lt;br&gt;input" style="text;html=1;align=center;verticalAlign=middle;resizable=0;points=[];autosize=1;strokeColor=none;fillColor=none;" vertex="1" parent="1">
          <mxGeometry x="25" y="560" width="50" height="40" as="geometry" />
        </mxCell>
        <mxCell id="3VvAE-X5apnyeA4Ob0VP-20" value="" style="group" vertex="1" connectable="0" parent="1">
          <mxGeometry x="80" y="450" width="730" height="50" as="geometry" />
        </mxCell>
        <mxCell id="3VvAE-X5apnyeA4Ob0VP-21" value="" style="endArrow=none;html=1;rounded=0;" edge="1" parent="3VvAE-X5apnyeA4Ob0VP-20">
          <mxGeometry width="50" height="50" relative="1" as="geometry">
            <mxPoint y="50" as="sourcePoint" />
            <mxPoint x="120" y="50" as="targetPoint" />
          </mxGeometry>
        </mxCell>
        <mxCell id="3VvAE-X5apnyeA4Ob0VP-22" value="" style="endArrow=none;html=1;rounded=0;" edge="1" parent="3VvAE-X5apnyeA4Ob0VP-20">
          <mxGeometry width="50" height="50" relative="1" as="geometry">
            <mxPoint x="120" as="sourcePoint" />
            <mxPoint x="120" y="50" as="targetPoint" />
          </mxGeometry>
        </mxCell>
        <mxCell id="3VvAE-X5apnyeA4Ob0VP-23" value="" style="endArrow=none;html=1;rounded=0;" edge="1" parent="3VvAE-X5apnyeA4Ob0VP-20">
          <mxGeometry width="50" height="50" relative="1" as="geometry">
            <mxPoint x="120" as="sourcePoint" />
            <mxPoint x="240" as="targetPoint" />
          </mxGeometry>
        </mxCell>
        <mxCell id="3VvAE-X5apnyeA4Ob0VP-24" value="" style="endArrow=none;html=1;rounded=0;" edge="1" parent="3VvAE-X5apnyeA4Ob0VP-20">
          <mxGeometry width="50" height="50" relative="1" as="geometry">
            <mxPoint x="240" as="sourcePoint" />
            <mxPoint x="240" y="50" as="targetPoint" />
          </mxGeometry>
        </mxCell>
        <mxCell id="3VvAE-X5apnyeA4Ob0VP-25" value="" style="endArrow=none;html=1;rounded=0;" edge="1" parent="3VvAE-X5apnyeA4Ob0VP-20">
          <mxGeometry width="50" height="50" relative="1" as="geometry">
            <mxPoint x="360" as="sourcePoint" />
            <mxPoint x="360" y="50" as="targetPoint" />
          </mxGeometry>
        </mxCell>
        <mxCell id="3VvAE-X5apnyeA4Ob0VP-26" value="" style="endArrow=none;html=1;rounded=0;" edge="1" parent="3VvAE-X5apnyeA4Ob0VP-20">
          <mxGeometry width="50" height="50" relative="1" as="geometry">
            <mxPoint x="240" y="50" as="sourcePoint" />
            <mxPoint x="360" y="50" as="targetPoint" />
          </mxGeometry>
        </mxCell>
        <mxCell id="3VvAE-X5apnyeA4Ob0VP-27" value="" style="endArrow=none;html=1;rounded=0;" edge="1" parent="3VvAE-X5apnyeA4Ob0VP-20">
          <mxGeometry width="50" height="50" relative="1" as="geometry">
            <mxPoint x="360" as="sourcePoint" />
            <mxPoint x="550" as="targetPoint" />
          </mxGeometry>
        </mxCell>
        <mxCell id="3VvAE-X5apnyeA4Ob0VP-28" value="" style="endArrow=none;html=1;rounded=0;" edge="1" parent="3VvAE-X5apnyeA4Ob0VP-20">
          <mxGeometry width="50" height="50" relative="1" as="geometry">
            <mxPoint x="550" as="sourcePoint" />
            <mxPoint x="550" y="50" as="targetPoint" />
          </mxGeometry>
        </mxCell>
        <mxCell id="3VvAE-X5apnyeA4Ob0VP-29" value="" style="endArrow=none;html=1;rounded=0;" edge="1" parent="3VvAE-X5apnyeA4Ob0VP-20">
          <mxGeometry width="50" height="50" relative="1" as="geometry">
            <mxPoint x="550" y="50" as="sourcePoint" />
            <mxPoint x="730" y="50" as="targetPoint" />
          </mxGeometry>
        </mxCell>
        <mxCell id="3VvAE-X5apnyeA4Ob0VP-30" value="TT" style="text;html=1;align=center;verticalAlign=middle;resizable=0;points=[];autosize=1;strokeColor=none;fillColor=none;" vertex="1" parent="1">
          <mxGeometry x="30" y="480" width="40" height="30" as="geometry" />
        </mxCell>
        <mxCell id="3VvAE-X5apnyeA4Ob0VP-37" value="" style="group" vertex="1" connectable="0" parent="1">
          <mxGeometry x="80" y="390" width="730" height="40" as="geometry" />
        </mxCell>
        <mxCell id="3VvAE-X5apnyeA4Ob0VP-32" value="" style="endArrow=none;html=1;rounded=0;" edge="1" parent="3VvAE-X5apnyeA4Ob0VP-37">
          <mxGeometry width="50" height="50" relative="1" as="geometry">
            <mxPoint y="40" as="sourcePoint" />
            <mxPoint x="550" y="40" as="targetPoint" />
          </mxGeometry>
        </mxCell>
        <mxCell id="3VvAE-X5apnyeA4Ob0VP-33" value="" style="endArrow=none;html=1;rounded=0;" edge="1" parent="3VvAE-X5apnyeA4Ob0VP-37">
          <mxGeometry width="50" height="50" relative="1" as="geometry">
            <mxPoint x="550" y="40" as="sourcePoint" />
            <mxPoint x="550" as="targetPoint" />
          </mxGeometry>
        </mxCell>
        <mxCell id="3VvAE-X5apnyeA4Ob0VP-34" value="" style="endArrow=none;html=1;rounded=0;" edge="1" parent="3VvAE-X5apnyeA4Ob0VP-37">
          <mxGeometry width="50" height="50" relative="1" as="geometry">
            <mxPoint x="550" as="sourcePoint" />
            <mxPoint x="610" as="targetPoint" />
          </mxGeometry>
        </mxCell>
        <mxCell id="3VvAE-X5apnyeA4Ob0VP-35" value="" style="endArrow=none;html=1;rounded=0;" edge="1" parent="3VvAE-X5apnyeA4Ob0VP-37">
          <mxGeometry width="50" height="50" relative="1" as="geometry">
            <mxPoint x="610" y="40" as="sourcePoint" />
            <mxPoint x="610" as="targetPoint" />
          </mxGeometry>
        </mxCell>
        <mxCell id="3VvAE-X5apnyeA4Ob0VP-36" value="" style="endArrow=none;html=1;rounded=0;" edge="1" parent="3VvAE-X5apnyeA4Ob0VP-37">
          <mxGeometry width="50" height="50" relative="1" as="geometry">
            <mxPoint x="610" y="40" as="sourcePoint" />
            <mxPoint x="730" y="40" as="targetPoint" />
          </mxGeometry>
        </mxCell>
        <mxCell id="3VvAE-X5apnyeA4Ob0VP-38" value="DN" style="text;html=1;align=center;verticalAlign=middle;resizable=0;points=[];autosize=1;strokeColor=none;fillColor=none;" vertex="1" parent="1">
          <mxGeometry x="30" y="410" width="40" height="30" as="geometry" />
        </mxCell>
        <mxCell id="3VvAE-X5apnyeA4Ob0VP-39" value="" style="endArrow=none;html=1;rounded=0;" edge="1" parent="1">
          <mxGeometry width="50" height="50" relative="1" as="geometry">
            <mxPoint x="80" y="370" as="sourcePoint" />
            <mxPoint x="200" y="370" as="targetPoint" />
          </mxGeometry>
        </mxCell>
        <mxCell id="3VvAE-X5apnyeA4Ob0VP-40" value="" style="endArrow=none;dashed=1;html=1;dashPattern=1 3;strokeWidth=2;rounded=0;" edge="1" parent="1">
          <mxGeometry width="50" height="50" relative="1" as="geometry">
            <mxPoint x="80" y="280" as="sourcePoint" />
            <mxPoint x="810" y="280" as="targetPoint" />
          </mxGeometry>
        </mxCell>
        <mxCell id="3VvAE-X5apnyeA4Ob0VP-41" value="PRE" style="text;html=1;align=center;verticalAlign=middle;resizable=0;points=[];autosize=1;strokeColor=none;fillColor=none;" vertex="1" parent="1">
          <mxGeometry x="25" y="260" width="50" height="30" as="geometry" />
        </mxCell>
        <mxCell id="3VvAE-X5apnyeA4Ob0VP-42" value="ACC" style="text;html=1;align=center;verticalAlign=middle;resizable=0;points=[];autosize=1;strokeColor=none;fillColor=none;" vertex="1" parent="1">
          <mxGeometry x="25" y="350" width="50" height="30" as="geometry" />
        </mxCell>
        <mxCell id="3VvAE-X5apnyeA4Ob0VP-43" value="" style="endArrow=none;html=1;rounded=0;" edge="1" parent="1">
          <mxGeometry width="50" height="50" relative="1" as="geometry">
            <mxPoint x="200" y="370" as="sourcePoint" />
            <mxPoint x="320" y="320" as="targetPoint" />
          </mxGeometry>
        </mxCell>
        <mxCell id="3VvAE-X5apnyeA4Ob0VP-44" value="" style="endArrow=none;html=1;rounded=0;" edge="1" parent="1">
          <mxGeometry width="50" height="50" relative="1" as="geometry">
            <mxPoint x="320" y="370" as="sourcePoint" />
            <mxPoint x="440" y="370" as="targetPoint" />
          </mxGeometry>
        </mxCell>
        <mxCell id="3VvAE-X5apnyeA4Ob0VP-45" value="" style="endArrow=none;html=1;rounded=0;" edge="1" parent="1">
          <mxGeometry width="50" height="50" relative="1" as="geometry">
            <mxPoint x="440" y="370" as="sourcePoint" />
            <mxPoint x="650" y="270" as="targetPoint" />
          </mxGeometry>
        </mxCell>
        <mxCell id="3VvAE-X5apnyeA4Ob0VP-46" value="" style="endArrow=none;html=1;rounded=0;" edge="1" parent="1">
          <mxGeometry width="50" height="50" relative="1" as="geometry">
            <mxPoint x="320" y="370" as="sourcePoint" />
            <mxPoint x="320" y="320" as="targetPoint" />
          </mxGeometry>
        </mxCell>
        <mxCell id="3VvAE-X5apnyeA4Ob0VP-47" value="" style="endArrow=none;html=1;rounded=0;" edge="1" parent="1">
          <mxGeometry width="50" height="50" relative="1" as="geometry">
            <mxPoint x="690" y="270" as="sourcePoint" />
            <mxPoint x="650" y="270" as="targetPoint" />
          </mxGeometry>
        </mxCell>
        <mxCell id="3VvAE-X5apnyeA4Ob0VP-48" value="" style="endArrow=none;html=1;rounded=0;" edge="1" parent="1">
          <mxGeometry width="50" height="50" relative="1" as="geometry">
            <mxPoint x="690" y="370" as="sourcePoint" />
            <mxPoint x="690" y="270" as="targetPoint" />
          </mxGeometry>
        </mxCell>
        <mxCell id="3VvAE-X5apnyeA4Ob0VP-49" value="" style="endArrow=none;html=1;rounded=0;" edge="1" parent="1">
          <mxGeometry width="50" height="50" relative="1" as="geometry">
            <mxPoint x="690" y="370" as="sourcePoint" />
            <mxPoint x="810" y="370" as="targetPoint" />
          </mxGeometry>
        </mxCell>
        <mxCell id="3VvAE-X5apnyeA4Ob0VP-50" value="" style="endArrow=none;dashed=1;html=1;rounded=0;" edge="1" parent="1">
          <mxGeometry width="50" height="50" relative="1" as="geometry">
            <mxPoint x="630" y="390" as="sourcePoint" />
            <mxPoint x="630" y="230" as="targetPoint" />
          </mxGeometry>
        </mxCell>
        <mxCell id="3VvAE-X5apnyeA4Ob0VP-57" value="" style="group" vertex="1" connectable="0" parent="1">
          <mxGeometry x="440" y="680" width="190" height="45" as="geometry" />
        </mxCell>
        <mxCell id="3VvAE-X5apnyeA4Ob0VP-52" value="" style="shape=crossbar;whiteSpace=wrap;html=1;rounded=1;" vertex="1" parent="3VvAE-X5apnyeA4Ob0VP-57">
          <mxGeometry width="190" height="20" as="geometry" />
        </mxCell>
        <mxCell id="3VvAE-X5apnyeA4Ob0VP-56" value="Timer Preset" style="text;html=1;align=center;verticalAlign=middle;resizable=0;points=[];autosize=1;strokeColor=none;fillColor=none;" vertex="1" parent="3VvAE-X5apnyeA4Ob0VP-57">
          <mxGeometry x="50" y="15" width="90" height="30" as="geometry" />
        </mxCell>
        <mxCell id="3VvAE-X5apnyeA4Ob0VP-58" value="" style="group" vertex="1" connectable="0" parent="1">
          <mxGeometry x="200" y="680" width="190" height="50" as="geometry" />
        </mxCell>
        <mxCell id="3VvAE-X5apnyeA4Ob0VP-59" value="" style="shape=crossbar;whiteSpace=wrap;html=1;rounded=1;" vertex="1" parent="3VvAE-X5apnyeA4Ob0VP-58">
          <mxGeometry width="190" height="20" as="geometry" />
        </mxCell>
        <mxCell id="3VvAE-X5apnyeA4Ob0VP-6" value="" style="endArrow=none;html=1;rounded=0;strokeColor=#00FF00;" edge="1" parent="1">
          <mxGeometry width="50" height="50" relative="1" as="geometry">
            <mxPoint x="80" y="580" as="sourcePoint" />
            <mxPoint x="200" y="580" as="targetPoint" />
          </mxGeometry>
        </mxCell>
        <mxCell id="3VvAE-X5apnyeA4Ob0VP-7" value="" style="endArrow=none;html=1;rounded=0;strokeColor=#00FF00;" edge="1" parent="1">
          <mxGeometry width="50" height="50" relative="1" as="geometry">
            <mxPoint x="200" y="530" as="sourcePoint" />
            <mxPoint x="200" y="580" as="targetPoint" />
          </mxGeometry>
        </mxCell>
        <mxCell id="3VvAE-X5apnyeA4Ob0VP-8" value="" style="endArrow=none;html=1;rounded=0;strokeColor=#00FF00;" edge="1" parent="1">
          <mxGeometry width="50" height="50" relative="1" as="geometry">
            <mxPoint x="200" y="530" as="sourcePoint" />
            <mxPoint x="320" y="530" as="targetPoint" />
          </mxGeometry>
        </mxCell>
        <mxCell id="3VvAE-X5apnyeA4Ob0VP-9" value="" style="endArrow=none;html=1;rounded=0;strokeColor=#00FF00;" edge="1" parent="1">
          <mxGeometry width="50" height="50" relative="1" as="geometry">
            <mxPoint x="320" y="530" as="sourcePoint" />
            <mxPoint x="320" y="580" as="targetPoint" />
          </mxGeometry>
        </mxCell>
        <mxCell id="3VvAE-X5apnyeA4Ob0VP-13" value="" style="endArrow=none;html=1;rounded=0;strokeColor=#00FF00;" edge="1" parent="1">
          <mxGeometry width="50" height="50" relative="1" as="geometry">
            <mxPoint x="440" y="530" as="sourcePoint" />
            <mxPoint x="440" y="580" as="targetPoint" />
          </mxGeometry>
        </mxCell>
        <mxCell id="3VvAE-X5apnyeA4Ob0VP-14" value="" style="endArrow=none;html=1;rounded=0;strokeColor=#00FF00;" edge="1" parent="1">
          <mxGeometry width="50" height="50" relative="1" as="geometry">
            <mxPoint x="320" y="580" as="sourcePoint" />
            <mxPoint x="440" y="580" as="targetPoint" />
          </mxGeometry>
        </mxCell>
        <mxCell id="3VvAE-X5apnyeA4Ob0VP-15" value="" style="endArrow=none;html=1;rounded=0;strokeColor=#00FF00;" edge="1" parent="1">
          <mxGeometry width="50" height="50" relative="1" as="geometry">
            <mxPoint x="440" y="530" as="sourcePoint" />
            <mxPoint x="690" y="530" as="targetPoint" />
          </mxGeometry>
        </mxCell>
        <mxCell id="3VvAE-X5apnyeA4Ob0VP-16" value="" style="endArrow=none;html=1;rounded=0;strokeColor=#00FF00;" edge="1" parent="1">
          <mxGeometry width="50" height="50" relative="1" as="geometry">
            <mxPoint x="690" y="530" as="sourcePoint" />
            <mxPoint x="690" y="580" as="targetPoint" />
          </mxGeometry>
        </mxCell>
        <mxCell id="3VvAE-X5apnyeA4Ob0VP-17" value="" style="endArrow=none;html=1;rounded=0;strokeColor=#00FF00;" edge="1" parent="1">
          <mxGeometry width="50" height="50" relative="1" as="geometry">
            <mxPoint x="690" y="580" as="sourcePoint" />
            <mxPoint x="810" y="580" as="targetPoint" />
          </mxGeometry>
        </mxCell>
        <mxCell id="3VvAE-X5apnyeA4Ob0VP-61" value="Timer working diagramm" style="text;strokeColor=none;fillColor=none;html=1;fontSize=24;fontStyle=1;verticalAlign=middle;align=center;" vertex="1" parent="1">
          <mxGeometry x="400" y="110" width="100" height="40" as="geometry" />
        </mxCell>
      </root>
    </mxGraphModel>
  </diagram>
</mxfile>
